<svg xmlns="http://www.w3.org/2000/svg" width="309.488" height="38.756" viewBox="0 0 309.488 38.756">
  <g id="SpaceX_logo_black" transform="translate(0.632 0.499)">
    <g id="Groupe_128" data-name="Groupe 128" transform="translate(0 13.829)">
      <path id="Tracé_366" data-name="Tracé 366" d="M29.468,27.823H8.8V22.7H35.45c-.7-2.175-2.952-4.2-6.914-4.2H9.191C4.763,18.5,2.2,20.131,2.2,23.705v3.807c0,3.108,2.641,4.894,6.526,4.894h20.9v5.438H1.5C2.2,40.8,4.452,42.35,8.492,42.35H29.546c4.428,0,6.6-1.709,6.6-5.361V33.183c0-3.341-2.564-5.127-6.681-5.361Z" transform="translate(-1.5 -18.5)" fill="#fff" stroke="#0c0f1a" stroke-width="1"/>
    </g>
    <g id="Groupe_129" data-name="Groupe 129" transform="translate(44.671 13.906)">
      <path id="Tracé_367" data-name="Tracé 367" d="M84.482,18.6H59V42.45h7.225V33.283h18.8c5.205,0,8.08-1.787,8.08-5.982V24.66C93.028,20.775,89.765,18.6,84.482,18.6Zm2.331,7.613c0,1.709-.311,2.641-3.108,2.641H66.225L66.3,22.64H83.394c3.108,0,3.5.932,3.5,2.564v1.01Z" transform="translate(-59 -18.6)" fill="#fff" stroke="#0c0f1a" stroke-width="1"/>
    </g>
    <g id="Groupe_130" data-name="Groupe 130" transform="translate(83.593 12.896)">
      <path id="Tracé_368" data-name="Tracé 368" d="M125.259,17.3l-4.351,5.361,7.38,10.177H112.907l-3.807,4.04h22.219l3.807,5.283h8.546Z" transform="translate(-109.1 -17.3)" fill="#fff" stroke="#0c0f1a" stroke-width="1"/>
    </g>
    <g id="Groupe_131" data-name="Groupe 131" transform="translate(124.69 13.829)">
      <path id="Tracé_369" data-name="Tracé 369" d="M169.3,22.7h27.036c-.7-2.8-3.418-4.2-7.3-4.2h-20.2c-3.5,0-6.837,1.4-6.837,5.205V37.068c0,3.807,3.341,5.205,6.837,5.205h20.432c4.661,0,6.293-1.321,7.07-4.506H169.3Z" transform="translate(-162 -18.5)" fill="#fff" stroke="#0c0f1a" stroke-width="1"/>
    </g>
    <g id="Groupe_132" data-name="Groupe 132" transform="translate(168.895 13.906)">
      <path id="Tracé_370" data-name="Tracé 370" d="M226.2,40.243v-7.3H240.73V28.9H218.9V44.748h32.241V40.243Z" transform="translate(-218.9 -20.898)" fill="#fff" stroke="#0c0f1a" stroke-width="1"/>
      <rect id="Rectangle_14" data-name="Rectangle 14" width="32.552" height="4.195" transform="translate(0.777)" fill="#fff" stroke="#0c0f1a" stroke-width="1"/>
    </g>
    <g id="Groupe_133" data-name="Groupe 133" transform="translate(210.924 13.906)">
      <path id="Tracé_371" data-name="Tracé 371" d="M284.343,18.6H273l13.362,9.789c1.942-1.321,4.2-2.719,6.215-3.884Zm16.47,12.2c-1.942,1.321-3.884,2.8-5.749,4.2l10.1,7.38h11.42L300.813,30.8Z" transform="translate(-273 -18.6)" fill="#fff" stroke="#0c0f1a" stroke-width="1"/>
    </g>
    <g id="Groupe_134" data-name="Groupe 134" transform="translate(210.148)">
      <path id="Tracé_372" data-name="Tracé 372" d="M370.664.7c-62.151,3.574-90.9,30.143-97.344,36.436L272,38.379h11.5C314.573,7.226,359.244,1.71,370.664.7Z" transform="translate(-272 -0.7)" fill="#fff" stroke="#0c0f1a" stroke-width="1"/>
    </g>
  </g>
</svg>
