<svg xmlns="http://www.w3.org/2000/svg" width="171" height="171" viewBox="0 0 171 171">
  <g id="Groupe_143" data-name="Groupe 143" transform="translate(-3036 -3279)">
    <circle id="Ellipse_18" data-name="Ellipse 18" cx="85.5" cy="85.5" r="85.5" transform="translate(3036 3279)"/>
    <g id="Groupe_142" data-name="Groupe 142" transform="translate(-9.634 0.427)">
      <g id="Groupe_139" data-name="Groupe 139" transform="translate(3067.653 3357.806)">
        <path id="Tracé_371" data-name="Tracé 371" d="M287.872,18.6H273l17.52,12.835c2.547-1.732,5.5-3.565,8.149-5.093Zm21.595,15.992c-2.547,1.732-5.093,3.667-7.538,5.5l13.242,9.677h14.974L309.467,34.592Z" transform="translate(-273 -18.6)" fill="#fff" stroke="#0c0f1a" stroke-width="1"/>
      </g>
      <g id="Groupe_141" data-name="Groupe 141">
        <g id="Groupe_140" data-name="Groupe 140" transform="translate(3066.634 3339.573)">
          <path id="Tracé_372" data-name="Tracé 372" d="M401.366.7c-81.49,4.686-119.18,39.523-127.634,47.774L272,50.1h15.076C327.821,9.256,386.392,2.024,401.366.7Z" transform="translate(-272 -0.7)" fill="#fff" stroke="#0c0f1a" stroke-width="1"/>
        </g>
      </g>
    </g>
  </g>
</svg>
